<?xml version="1.0" standalone="no"?>
<!DOCTYPE svg PUBLIC "-//W3C//DTD SVG 20010904//EN"
 "http://www.w3.org/TR/2001/REC-SVG-20010904/DTD/svg10.dtd">
<svg version="1.0" xmlns="http://www.w3.org/2000/svg"
 width="512.000000pt" height="512.000000pt" viewBox="0 0 512.000000 512.000000"
 preserveAspectRatio="xMidYMid meet">
<metadata>
Created by potrace 1.16, written by Peter Selinger 2001-2019
</metadata>
<g transform="translate(0.000000,512.000000) scale(0.100000,-0.100000)"
fill="#000000" stroke="none">
<path d="M3925 4049 c-181 -24 -423 -115 -562 -211 -23 -15 -63 -32 -89 -37
-68 -13 -252 -142 -437 -307 -20 -19 -46 -34 -56 -34 -11 0 -22 -8 -25 -18 -4
-10 -61 -67 -129 -126 -129 -115 -495 -457 -712 -666 -71 -69 -147 -138 -167
-154 -21 -16 -38 -35 -38 -42 0 -8 -19 -34 -42 -58 l-43 -44 -75 -1 c-197 -1
-428 -112 -615 -296 -68 -68 -145 -167 -176 -228 l-20 -37 28 -11 c15 -6 30
-15 34 -21 4 -6 53 5 135 32 136 44 280 79 327 80 40 0 35 -32 -10 -72 -66
-58 -288 -272 -291 -280 -6 -14 19 -38 40 -38 18 0 18 -1 -1 -27 -39 -57 -34
-152 12 -217 l20 -29 -36 -34 c-39 -35 -45 -51 -25 -71 19 -19 40 -14 78 18
31 27 41 30 103 30 61 0 81 6 192 55 69 30 127 55 130 55 3 0 25 10 50 21 38
18 48 19 61 8 25 -21 13 -160 -25 -284 -48 -156 -43 -167 52 -119 241 122 423
335 482 564 20 76 35 96 93 121 27 12 42 25 42 36 0 10 17 30 38 44 148 105
1110 915 1114 939 2 9 62 68 133 129 165 143 167 145 159 188 -6 31 -2 38 72
116 151 157 237 275 348 472 88 158 156 367 156 482 0 44 -4 54 -22 64 -29 16
-211 21 -303 8z m233 -67 c7 -5 10 -16 6 -25 -3 -9 -10 -14 -15 -12 -16 10
-187 -86 -235 -133 l-22 -21 -20 22 c-22 24 -52 87 -52 111 0 28 303 80 338
58z m-363 -115 c9 -29 44 -91 77 -137 33 -46 55 -86 50 -88 -19 -6 -89 -60
-187 -142 -108 -92 -102 -92 -175 -4 -85 102 -150 243 -127 272 21 26 294 150
334 152 6 0 19 -24 28 -53z m-421 -149 c28 -96 95 -212 179 -306 26 -29 47
-56 47 -60 0 -4 -38 -42 -84 -84 -47 -42 -82 -80 -78 -84 4 -5 -1 -2 -11 6
-27 20 -77 111 -77 138 0 13 -4 21 -9 18 -9 -6 -64 115 -80 179 -6 22 -11 61
-11 88 0 46 1 48 53 82 58 38 66 41 71 23z m-173 -146 c-3 -1 -33 -17 -65 -35
-85 -47 -82 -65 3 -23 l70 36 11 -43 c5 -23 24 -77 41 -120 30 -77 31 -79 12
-92 -11 -8 -46 -34 -79 -59 l-59 -45 -27 57 c-35 73 -78 224 -78 271 0 40 18
62 115 139 l50 40 6 -61 c4 -34 4 -63 0 -65z m-232 -139 c17 -75 74 -223 112
-289 16 -29 58 -90 93 -137 l64 -84 -28 -16 c-15 -9 -45 -34 -67 -56 l-40 -40
-25 27 c-37 40 -108 137 -108 148 0 5 9 15 20 22 19 12 28 61 14 75 -4 3 -26
-5 -50 -19 l-43 -25 -29 58 c-49 96 -78 204 -73 274 1 18 129 131 140 125 4
-3 13 -31 20 -63z m-127 -321 c35 -79 39 -95 27 -107 -8 -7 -68 -57 -135 -111
-136 -111 -400 -339 -603 -519 -74 -66 -184 -164 -244 -218 -82 -73 -113 -95
-118 -84 -4 7 -15 46 -25 86 -13 62 -14 75 -3 82 12 8 12 10 0 18 -10 6 -12
24 -9 67 l5 58 194 190 c241 237 475 458 684 644 l160 142 13 -77 c7 -44 31
-118 54 -171z m352 -12 c16 -25 22 -39 13 -32 -17 15 -67 95 -67 109 0 4 6 -1
12 -12 6 -11 25 -40 42 -65z m161 -187 c52 -41 61 -56 13 -22 -50 36 -118 104
-118 119 0 7 13 -4 30 -25 16 -20 50 -53 75 -72z m-318 -122 c24 -29 43 -57
43 -61 0 -4 -21 -25 -47 -46 -98 -78 -329 -284 -488 -433 -49 -47 -197 -179
-328 -293 -265 -233 -244 -223 -307 -143 -43 55 -100 150 -100 168 0 8 55 64
122 124 67 59 149 133 182 163 113 102 270 237 535 458 l264 221 40 -52 c23
-29 60 -76 84 -106z m533 115 c0 -2 -8 -10 -17 -17 -16 -13 -17 -12 -4 4 13
16 21 21 21 13z m-68 -50 l23 19 -19 -22 c-23 -28 -43 -29 -76 -2 l-25 20 37
-17 c36 -17 39 -17 60 2z m-1794 -593 c1 -48 9 -115 17 -150 8 -36 15 -70 15
-78 0 -7 -37 -40 -82 -74 -93 -69 -91 -70 -107 30 -19 113 -15 151 21 200 27
38 127 159 131 159 1 0 3 -39 5 -87z m-256 -87 c-32 -52 -71 -124 -87 -159
l-27 -65 -69 -6 c-81 -8 -234 -45 -338 -80 -41 -15 -79 -26 -83 -26 -16 0 84
120 147 177 83 76 161 128 270 179 82 39 234 88 243 79 2 -2 -23 -46 -56 -99z
m87 -265 c13 -42 12 -43 -52 -86 l-52 -35 -7 32 c-9 43 5 95 51 187 l36 74 7
-69 c4 -38 11 -84 17 -103z m267 -18 c20 -38 55 -95 78 -127 38 -55 40 -60 22
-70 -10 -6 -35 -24 -55 -39 -60 -48 -90 -60 -107 -46 -34 28 -134 198 -134
228 0 9 140 121 152 121 3 0 23 -30 44 -67z m-406 -90 c0 -10 -4 -24 -9 -32
-6 -9 -10 -4 -13 18 -3 21 0 31 9 31 7 0 13 -8 13 -17z m198 -104 c-2 -5 -26
-20 -55 -33 -48 -23 -52 -23 -67 -8 -14 17 -39 73 -34 77 2 1 28 21 58 43 l54
41 24 -55 c13 -31 22 -60 20 -65z m-258 68 c0 -14 -53 -66 -117 -116 -67 -51
-50 -18 30 59 74 71 87 80 87 57z m110 -179 c0 -23 -24 -2 -40 35 -20 43 -26
88 -13 101 6 6 53 -115 53 -136z m-87 87 c3 -19 17 -58 32 -86 14 -29 24 -53
23 -54 -5 -5 -154 -111 -165 -118 -6 -4 -19 21 -31 61 -34 110 -35 106 43 172
39 32 75 59 81 60 6 0 14 -16 17 -35z m-245 -108 c-19 -18 -38 -40 -42 -49 -6
-21 -39 -24 -34 -4 4 17 100 98 107 90 3 -3 -11 -20 -31 -37z m592 4 c26 -22
68 -53 93 -69 36 -22 43 -31 31 -36 -31 -12 -101 -6 -160 14 -64 22 -122 59
-92 60 9 0 29 15 45 34 15 19 30 35 32 35 3 1 26 -17 51 -38z m-526 -73 c9
-35 19 -74 22 -88 5 -18 4 -22 -4 -15 -16 15 -60 138 -55 153 10 26 21 10 37
-50z m321 42 c-3 -5 -10 -10 -16 -10 -15 0 -219 -151 -219 -163 0 -5 16 -31
36 -56 l36 -46 -46 50 c-25 28 -46 52 -46 55 0 6 108 87 188 143 53 36 79 47
67 27z m46 -37 c13 -16 12 -17 -3 -4 -10 7 -18 15 -18 17 0 8 8 3 21 -13z
m-401 -50 c13 -32 27 -62 32 -67 16 -19 8 -45 -22 -66 -17 -12 -37 -20 -44
-17 -20 8 -49 103 -41 135 8 32 32 72 44 72 5 0 19 -26 31 -57z m451 10 c13
-16 12 -17 -3 -4 -10 7 -18 15 -18 17 0 8 8 3 21 -13z m358 -105 c-57 -114
-118 -205 -187 -275 -51 -53 -139 -120 -147 -111 -2 2 6 37 17 78 21 77 29
227 15 266 -7 20 0 23 89 49 112 31 225 72 239 86 24 23 13 -15 -26 -93z
m-736 -32 c3 -8 -8 -19 -29 -30 -53 -25 -63 -19 -24 14 40 34 46 35 53 16z"/>
<path d="M2757 3194 c-8 -8 1 -24 14 -24 5 0 9 7 9 15 0 15 -12 20 -23 9z"/>
<path d="M2370 2866 c-28 -34 11 -94 44 -67 21 17 21 67 0 75 -23 9 -30 8 -44
-8z"/>
<path d="M2454 2388 c-5 -7 -23 -24 -40 -38 -151 -120 -241 -194 -250 -206
-10 -12 -15 -11 -38 7 -20 16 -26 17 -26 6 0 -8 7 -20 15 -27 21 -17 19 -30
-5 -30 -25 0 -25 -8 1 -36 23 -24 11 -29 99 44 19 16 83 65 142 110 99 75 108
79 127 65 28 -19 28 0 0 47 l-21 35 25 -24 c17 -15 32 -21 43 -17 9 4 15 7 13
9 -2 1 -21 17 -41 35 -28 26 -38 31 -44 20z"/>
<path d="M1674 2206 c-10 -8 -15 -18 -11 -22 4 -4 15 0 24 9 22 21 12 31 -13
13z"/>
<path d="M1735 1765 c-28 -27 -33 -63 -11 -71 22 -8 76 24 76 46 0 17 -24 50
-36 50 -3 0 -16 -11 -29 -25z m40 -25 c0 -8 -10 -16 -22 -18 -22 -3 -32 16
-16 32 12 11 38 2 38 -14z"/>
</g>
</svg>